<svg xmlns="http://www.w3.org/2000/svg" xmlns:xlink="http://www.w3.org/1999/xlink" xml:space="preserve" style="enable-background:new 0 0 500 500" viewBox="0 0 500 500"><path d="M0 0h500v500H0z" style="fill:#fff"/><defs><path id="a" d="M0 0h500v500H0z"/></defs><clipPath id="b"><use xlink:href="#a" style="overflow:visible"/></clipPath><g style="clip-path:url(#b)"><path d="M460.618 147.725c-7.329-20.935-21.079-38.869-37.507-53.774-21.325-19.347-45.068-22.347-67.242-22.919-46.308-1.195-94.315 19.048-103.235 59.553-4.055 18.413 1.777 31.369 1.895 50.223.118 18.854 6.375 40.539-5.986 54.777-17.398 20.039-47.705 21.981-74.04 18.708-26.335-3.273-53.509-10.161-78.884-2.392-38.354 11.743-67.909 61.784-60.896 101.277 7.013 39.494 26.964 80.486 63.336 97.397s96.363 17.442 137.402 17.918l45.682-.836c70.677-9.094 119.105-29.494 161.831-79.055 46.425-53.853 39.266-179.116 17.644-240.877z" style="fill:#e4e8f4"/><ellipse cx="101.427" cy="123.648" rx="54.319" ry="49.754" style="fill:#e4e8f4"/><path d="M-9.776 143.698h511.473v30.976H-9.776zM22.902 174.674v157.149M55.345 174.674v157.149M87.787 174.674v157.149M120.23 174.674v157.149M152.672 174.674v157.149M185.115 174.674v157.149M217.557 174.674v157.149M282.443 174.674v157.149M250 174.674v157.149M314.885 174.674v157.149M347.328 174.674v157.149M379.77 174.674v157.149M444.655 174.674v157.149M412.213 174.674v157.149M477.098 174.674v157.149M512.626 208.479H-12.626M512.626 239.348H-12.626M512.626 270.217H-12.626M512.626 301.086H-12.626M512.626 331.954H-12.626" style="fill:none;stroke:#bdc1d1;stroke-width:.75;stroke-miterlimit:10"/><path d="m444.203 135.137-7.013-20.869 11.527 17.646 7.196-25.703.436 28.107 19.042-5.501-17.063 11.301 18.581 11.295-22.748-5.794 3.438 23.058s-9.055-23.026-9.795-21.131c-.74 1.895-18.649 16.203-18.649 16.203l12.975-21.51-22.911-10.019 24.984 2.917z" style="fill:#050c2d"/><path d="m41.782 91.285-.183-16.004 4.027 14.784 10.726-16.17-5.985 19.54 14.403.454-14.331 4.001 10.327 11.969-14.44-9.096-2.779 16.719s-1.113-17.953-2.049-16.808c-.936 1.145-16.524 7.037-16.524 7.037L38.76 95.734 25.152 83.678l16.63 7.607zM123.134 271.662l-8.032-11.306 9.704 9.437 2.813-14.126.793 14.431 10.155-5.573-8.708 7.936 15.527 3.323-16.822-.483 3.8 9.834s-6.275-9.264-6.414-8.354c-.139.909-8.33 14.107-8.33 14.107l5.301-15.886-18.76-2.229 18.973-1.111z" style="fill:none;stroke:#050c2d;stroke-width:.75;stroke-linecap:round;stroke-linejoin:round;stroke-miterlimit:10"/></g><path d="m197.65 260.251-13.622 54.43 2.103-8.404c-35.333 10.014-95.263 41.852-95.263 41.852l16.815 33.225s95.076-22.402 111.678-35.173c16.602-12.771 31.96-83.664 31.96-83.664l-53.671-2.266z" style="fill:#fff"/><path d="M186.13 306.277c-35.333 10.014-95.263 41.851-95.263 41.851l19.461 33.225s92.43-22.402 109.032-35.173c16.602-12.771 31.96-83.664 31.96-83.664l-53.67-2.265-13.622 54.43" style="fill:none;stroke:#050c2d;stroke-width:.75;stroke-linecap:round;stroke-linejoin:round;stroke-miterlimit:10"/><path d="M202.758 338.517s4.673 2.411 12.931 2.554" style="fill:none;stroke:#050c2d;stroke-width:.75;stroke-linecap:round;stroke-linejoin:round;stroke-miterlimit:10"/><path d="M108.143 382.258s11.395-3.755 23.385-6.295l-19.705-38.501c-12.773 6.369-21.459 9.895-21.459 9.895l17.779 34.901z" style="fill:#fff;stroke:#050c2d;stroke-width:.75;stroke-linecap:round;stroke-linejoin:round;stroke-miterlimit:10"/><path d="m104.043 341.313 17.59 36.897c1.798-.363 4.048-1.124 6.308-1.592l-18.864-37.725c-2.112 1.192-3.302 1.423-5.034 2.42zM187.433 278.94l69.72 3.958 10.015-53.548-47.808-51.223s-15.751 8.416-25.116 34.384c-9.365 25.967-6.811 66.429-6.811 66.429z" style="fill:#050c2d"/><path d="m191.583 270.195 48.211 2.381" style="fill:none;stroke:#d8dcef;stroke-width:.75;stroke-linecap:round;stroke-linejoin:round;stroke-miterlimit:10"/><path d="M112.088 382.945h0a1.41 1.41 0 0 0 .562-1.85l-17.858-36.037a1.42 1.42 0 0 0-1.713-.724c-10.62 3.45-25.053 8.713-25.205 11.882-.24 5.018-2.404 36.082 16.83 58.066 19.234 21.984 21.495 16.831 23.803 10.753 3.444-9.07 1.215-25.249-.328-33.702-.608-3.335.96-6.685 3.909-8.388z" style="fill:#318a76;stroke:#050c2d;stroke-width:.75;stroke-linecap:round;stroke-linejoin:round;stroke-miterlimit:10"/><path d="M75.135 351.011s-8.943-1.963-11.348 4.25c-2.404 6.213-4.328 20.072 0 27.48 4.328 7.408 5.77 7.885 5.77 14.098 0 6.213 10.579 28.432 20.437 33.452s13.653 3.075 16.349 0c3.246-3.702 1.683-5.374-4.087-6.45-2.467-.46-14.666-10.275-19.234-16.966-4.568-6.691-10.339-14.815-11.541-24.612-1.202-9.797-2.164-16.249-1.443-20.072.722-3.824 5.097-11.18 5.097-11.18z" style="fill:#fff;stroke:#050c2d;stroke-width:.75;stroke-linecap:round;stroke-linejoin:round;stroke-miterlimit:10"/><path d="M106.464 411.18s-13.704-2.633-10.193-7.651c2.435-3.48 9.833 3.584 10.073 0 .24-3.584-8.415-4.54-8.656-9.797-.24-5.257 8.175-1.69 8.175-1.69" style="fill:none;stroke:#050c2d;stroke-width:.75;stroke-linecap:round;stroke-linejoin:round;stroke-miterlimit:10"/><path d="M321.957 197.387s57.097 51.835 61.326 66.897c4.229 15.062 7.279 78.69 6.605 127.759l-37.609-4.765-10.245-94.281s-61.799-48.614-79.252-73.573c-17.454-24.959 56.139-24.824 59.175-22.037z" style="fill:#fff;stroke:#050c2d;stroke-width:.75;stroke-linecap:round;stroke-linejoin:round;stroke-miterlimit:10"/><path d="M382.988 280.788s-2.273 1.098-9.757-1.849" style="fill:none;stroke:#050c2d;stroke-width:.75;stroke-linecap:round;stroke-linejoin:round;stroke-miterlimit:10"/><path d="M389.883 362.676h-40.277l2.673 24.601 37.609 4.765c.129-9.402.121-19.339-.005-29.366z" style="fill:#fff;stroke:#050c2d;stroke-width:.75;stroke-linecap:round;stroke-linejoin:round;stroke-miterlimit:10"/><path d="M350.038 366.657h39.889v5.278h-39.496z" style="fill:#050c2d"/><path d="M392.494 388.432h0a1.412 1.412 0 0 0-1.323-1.411l-40.14-2.518a1.422 1.422 0 0 0-1.483 1.123c-2.313 10.924-4.957 26.057-2.288 27.771 4.228 2.714 30.063 20.097 58.714 14.406 28.651-5.691 25.314-10.222 21.2-15.256-6.14-7.512-21.271-13.658-29.365-16.541-3.193-1.138-5.312-4.17-5.315-7.574z" style="fill:#318a76;stroke:#050c2d;stroke-width:.75;stroke-linecap:round;stroke-linejoin:round;stroke-miterlimit:10"/><path d="M346.375 404.507s-6.166 6.769-1.983 11.954c4.183 5.185 15.231 13.771 23.81 13.719 8.579-.052 9.713-1.063 15.096 2.039 5.383 3.102 29.916 5.028 39.187-1.007 9.271-6.035 9.481-10.294 8.162-14.166-1.587-4.66-3.817-4.141-7.629.322-1.63 1.908-16.225 7.578-24.303 8.196-8.078.618-17.998 1.562-27.087-2.288-9.089-3.849-15.159-6.237-18.112-8.771-2.951-2.535-7.141-9.998-7.141-9.998z" style="fill:#fff;stroke:#050c2d;stroke-width:.75;stroke-linecap:round;stroke-linejoin:round;stroke-miterlimit:10"/><path d="M414.15 407.401s-9.123 10.56-11.718 5.012c-1.8-3.848 8.014-6.73 5.029-8.728-2.986-1.998-8.135 5.025-12.81 2.609-4.675-2.416 2.617-7.927 2.617-7.927" style="fill:none;stroke:#050c2d;stroke-width:.75;stroke-linecap:round;stroke-linejoin:round;stroke-miterlimit:10"/><path d="m254.161 222.276 33.843 42.008 66.68-38.151-32.673-34.482s-34.033-1.49-40.884 0c-6.852 1.49-36.863 12.826-26.966 30.625z" style="fill:#050c2d"/><path d="m284.879 255.069 61.052-34.329" style="fill:none;stroke:#d8dcef;stroke-width:.75;stroke-linecap:round;stroke-linejoin:round;stroke-miterlimit:10"/><path d="M381.232 213.096c-4.63-4.949-12.685-11.441-12.685-11.441L357.5 158.234l-24.142 19.893s9.828 33.053 14.564 36.566c4.736 3.512 10.642 9.099 11.44 10.855.798 1.756 2.874 10.099 6.386 10.876 3.512.777 2.909-2.448 3.033-7.074.048-1.779-.073-3.639-.237-5.265l.003.01c1.676 3.193 4.224 6.801 4.684 8.956.46 2.155 3.212 6.944 5.207 3.831 1.994-3.111-3.206-12.103-3.213-12.115 1.439 1.906 3.328 4.652 4.517 7.326 2.129 4.789 5.747 5.325 7.343 2.982l-.953-.881c1.864 1.466 3.342 1.177 3.72-1.516.48-3.407-3.99-14.633-8.62-19.582z" style="fill:#fff"/><path d="M368.156 221.002s4.935 1.353 8.435 1.991c3.5.639 5.44 6.705 7.994 9.684 2.554 2.979 4.789 3.406 5.268 0 .479-3.406-3.991-14.633-8.62-19.582-4.629-4.949-12.685-11.441-12.685-11.441l-11.048-43.42-24.142 19.893s9.828 33.053 14.564 36.566c4.736 3.512 10.642 9.099 11.44 10.855.798 1.756 2.873 10.099 6.385 10.876 3.512.777 2.909-2.448 3.033-7.074.124-4.626-.878-9.868-.878-9.868" style="fill:none;stroke:#050c2d;stroke-width:.75;stroke-linecap:round;stroke-linejoin:round;stroke-miterlimit:10"/><path d="M373.232 222.276s4.382 5.028 6.511 9.817c2.129 4.789 5.747 5.325 7.343 2.982" style="fill:none;stroke:#050c2d;stroke-width:.75;stroke-linecap:round;stroke-linejoin:round;stroke-miterlimit:10"/><path d="M375.225 224.765s5.209 9.004 3.214 12.117c-1.995 3.113-4.747-1.676-5.207-3.831s-3.008-5.764-4.684-8.956" style="fill:none;stroke:#050c2d;stroke-width:.75;stroke-linecap:round;stroke-linejoin:round;stroke-miterlimit:10"/><path d="M275.767 242.735s-28.31-1.925-47.467-23.311c-19.156-21.387-17.454-38.415-17.454-38.415s43.887-48.104 89.417-63.855c45.53-15.751 57.573-9.887 64.748-7.711 7.175 2.177 11.574 22.808 11.574 22.808s1 16.389-22.343 48.062c-21.636 29.357-41.654 49.65-51.87 54.759-10.217 5.109-26.605 7.663-26.605 7.663z" style="fill:#7accfb"/><path d="M219.36 191.651s8.56 21.711 27.055 34.482" style="fill:none;stroke:#050c2d;stroke-width:.75;stroke-linecap:round;stroke-linejoin:round;stroke-miterlimit:10"/><path d="M375.817 284.204c-4.843-21.059-25.841-34.204-46.9-29.36-9.837 2.263-17.946 8.052-23.303 15.724 0 0-8.593 10.114-11.773 15.433-3.18 5.319-8.208 11.488-15.151 14.117-6.943 2.629-36.586 9.122-45.803 10.073l1.019 4.431.971 4.22 1.019 4.431c8.706-3.172 38.207-10.281 45.601-10.95 7.394-.669 14.613 2.683 19.797 6.079 5.184 3.396 17.332 8.739 17.332 8.739 8.17 4.561 17.993 6.226 27.831 3.963 21.059-4.843 34.204-25.841 29.36-46.9zm-25.636 34.729a2.126 2.126 0 1 1-4.144.954 2.126 2.126 0 0 1 4.144-.954zm10.047-8.718a2.126 2.126 0 1 1-4.144.954 2.126 2.126 0 0 1 4.144-.954zm-8.199.864a2.126 2.126 0 1 1-.954-4.144 2.126 2.126 0 0 1 .954 4.144zm-15.721-1.769a2.126 2.126 0 1 1 4.144-.954 2.126 2.126 0 0 1-4.144.954zm-3.55 2.998a2.127 2.127 0 1 1-.953-4.145 2.127 2.127 0 0 1 .953 4.145zm10.48-4.592a2.127 2.127 0 1 1 4.145-.953 2.127 2.127 0 0 1-4.145.953zm22.564-5.19a2.126 2.126 0 1 1-4.144.954 2.126 2.126 0 0 1 4.144-.954zm-6.973 1.604a2.126 2.126 0 1 1-4.144.954 2.126 2.126 0 0 1 4.144-.954zm-8.2.864a2.126 2.126 0 1 1-.954-4.144 2.126 2.126 0 0 1 .954 4.144zm-15.775-20.979a2.126 2.126 0 1 1-4.144.954 2.126 2.126 0 0 1 4.144-.954zm4.381-3.189a2.127 2.127 0 1 1 .953 4.145 2.127 2.127 0 0 1-.953-4.145zm-10.48 4.592a2.126 2.126 0 1 1-4.144.954 2.126 2.126 0 0 1 4.144-.954zm-5.398 4.445a2.126 2.126 0 1 1-4.144.954 2.126 2.126 0 0 1 4.144-.954zm12.896.238a2.126 2.126 0 1 1-4.144.954 2.126 2.126 0 0 1 4.144-.954zm4.381-3.19a2.126 2.126 0 1 1 .954 4.144 2.126 2.126 0 0 1-.954-4.144zm-10.479 4.592a2.126 2.126 0 1 1-4.144.954 2.126 2.126 0 0 1 4.144-.954zm-11.764 2.706a2.127 2.127 0 1 1-4.145.953 2.127 2.127 0 0 1 4.145-.953zm3.816.144a2.126 2.126 0 1 1 .954 4.144 2.126 2.126 0 0 1-.954-4.144zm15.446 1.833a2.126 2.126 0 1 1-4.144.954 2.126 2.126 0 0 1 4.144-.954zm4.381-3.19a2.126 2.126 0 1 1 .954 4.144 2.126 2.126 0 0 1-.954-4.144zm-10.479 4.593a2.126 2.126 0 1 1-4.144.954 2.126 2.126 0 0 1 4.144-.954zm-11.764 2.705a2.126 2.126 0 1 1-4.144.954 2.126 2.126 0 0 1 4.144-.954zm3.816.144a2.126 2.126 0 1 1 .954 4.144 2.126 2.126 0 0 1-.954-4.144zm6.798 1.64a2.127 2.127 0 1 1 .953 4.145 2.127 2.127 0 0 1-.953-4.145zm4.503 1.146a2.126 2.126 0 1 1 4.144-.954 2.126 2.126 0 0 1-4.144.954zm6.93-1.594a2.127 2.127 0 1 1 4.145-.953 2.127 2.127 0 0 1-4.145.953zm22.564-5.189a2.126 2.126 0 1 1-4.144.954 2.126 2.126 0 0 1 4.144-.954zm-6.973 1.603a2.126 2.126 0 1 1-4.144.954 2.126 2.126 0 0 1 4.144-.954zm-8.2.865a2.126 2.126 0 1 1-.954-4.144 2.126 2.126 0 0 1 .954 4.144zm13.774-8.554a2.126 2.126 0 1 1-4.144.954 2.126 2.126 0 0 1 4.144-.954zm-6.973 1.604a2.126 2.126 0 1 1-4.144.954 2.126 2.126 0 0 1 4.144-.954zm-8.2.864a2.127 2.127 0 1 1-.953-4.145 2.127 2.127 0 0 1 .953 4.145zm13.773-8.553a2.127 2.127 0 1 1-4.145.953 2.127 2.127 0 0 1 4.145-.953zm-6.973 1.604a2.126 2.126 0 1 1-4.144.954 2.126 2.126 0 0 1 4.144-.954zm-8.2.864a2.126 2.126 0 1 1-.954-4.144 2.126 2.126 0 0 1 .954 4.144zm13.773-8.553a2.126 2.126 0 1 1-4.144.954 2.126 2.126 0 0 1 4.144-.954zm-6.973 1.604a2.126 2.126 0 1 1-4.144.954 2.126 2.126 0 0 1 4.144-.954zm-8.2.864a2.126 2.126 0 1 1-.954-4.144 2.126 2.126 0 0 1 .954 4.144zm-15.72-1.769a2.126 2.126 0 1 1 4.144-.954 2.126 2.126 0 0 1-4.144.954zm-3.55 2.998a2.126 2.126 0 1 1-.954-4.144 2.126 2.126 0 0 1 .954 4.144zm10.48-4.592a2.126 2.126 0 1 1 4.144-.954 2.126 2.126 0 0 1-4.144.954zm22.564-5.19a2.127 2.127 0 1 1-4.145.953 2.127 2.127 0 0 1 4.145-.953zm-6.973 1.604a2.127 2.127 0 1 1-4.145.953 2.127 2.127 0 0 1 4.145-.953zm-8.2.864a2.126 2.126 0 1 1-.954-4.144 2.126 2.126 0 0 1 .954 4.144zm-8.791-3.364a2.126 2.126 0 1 1 4.144-.954 2.126 2.126 0 0 1-4.144.954zm-4.381 3.19a2.127 2.127 0 1 1-.953-4.145 2.127 2.127 0 0 1 .953 4.145zm19.972-6.776a2.126 2.126 0 1 1-4.144.954 2.126 2.126 0 0 1 4.144-.954zm-23.92-.905a2.126 2.126 0 1 1 4.144-.954 2.126 2.126 0 0 1-4.144.954zm6.929-1.594a2.126 2.126 0 1 1 4.144-.954 2.126 2.126 0 0 1-4.144.954zm7.838-.781a2.126 2.126 0 1 1 .954 4.144 2.126 2.126 0 0 1-.954-4.144zm-17.871 7.314a2.127 2.127 0 1 1 .953 4.145 2.127 2.127 0 0 1-.953-4.145zm-5.398 4.445a2.127 2.127 0 1 1 .953 4.145 2.127 2.127 0 0 1-.953-4.145zm-6.562 6.895a2.126 2.126 0 1 1 4.144-.954 2.126 2.126 0 0 1-4.144.954zm7.961-.809a2.126 2.126 0 1 1 .954 4.144 2.126 2.126 0 0 1-.954-4.144zm-6.561 6.894a2.126 2.126 0 1 1 4.144-.954 2.126 2.126 0 0 1-4.144.954zm-17.645 21.389-11.851-1.719a1.805 1.805 0 0 1-1.501-1.383l-.676-2.939a1.807 1.807 0 0 1 .746-1.9l9.909-6.724a1.807 1.807 0 0 1 1.634-.202l2.587.944c.575.21 1.004.696 1.141 1.292l.888 3.862.169.735.888 3.862a1.808 1.808 0 0 1-.462 1.661l-1.915 1.979a1.8 1.8 0 0 1-1.557.532zm21.844-3.133a2.126 2.126 0 1 1 4.144-.954 2.126 2.126 0 0 1-4.144.954zm7.961-.81a2.127 2.127 0 1 1 .953 4.145 2.127 2.127 0 0 1-.953-4.145zm-6.562 6.895a2.126 2.126 0 1 1 4.144-.954 2.126 2.126 0 0 1-4.144.954zm6.366 1.74a2.126 2.126 0 1 1 4.144-.954 2.126 2.126 0 0 1-4.144.954zm6.798 1.639a2.126 2.126 0 1 1 4.144-.954 2.126 2.126 0 0 1-4.144.954zm6.098-1.402a2.126 2.126 0 1 1 4.144-.954 2.126 2.126 0 0 1-4.144.954zm6.93-1.594a2.126 2.126 0 1 1 4.144-.954 2.126 2.126 0 0 1-4.144.954zm7.838-.781a2.127 2.127 0 1 1 .953 4.145 2.127 2.127 0 0 1-.953-4.145zm-13.368 8.46a2.127 2.127 0 1 1 4.145-.953 2.127 2.127 0 0 1-4.145.953z" style="fill:#050c2d"/><path d="M315.405 265.474a35.246 35.246 0 0 1 14.35-6.986c19.046-4.381 38.038 7.508 42.418 26.554M337.463 328.369c-8.067-.044-15.736-2.864-21.845-7.731" style="fill:none;stroke:#d8dcef;stroke-width:.75;stroke-linecap:round;stroke-linejoin:round;stroke-miterlimit:10"/><path d="M276.059 300.986c-9.883 2.971-34.85 8.347-43.172 9.205l1.019 4.431.971 4.22 1.019 4.431c7.86-2.864 32.667-8.936 42.855-10.581l-2.692-11.706z" style="fill:#318a76"/><path d="M434.743 250.511s8.853.991 13.321 12.004M404.578 308.109s4.634 3.604 11.931 3.917M297.964 328.369s21.213 22.956 58.041 14.184" style="fill:none;stroke:#050c2d;stroke-width:.75;stroke-linecap:round;stroke-linejoin:round;stroke-miterlimit:10"/><circle cx="421.161" cy="276.834" r="16.583" style="fill:#fff;stroke:#050c2d;stroke-width:.75;stroke-miterlimit:10" transform="rotate(-80.781 421.166 276.827)"/><path d="M404.8 279.539s3.763 1.665 6.848-3.22 7.842-5.399 10.927-3.214 3.214 8.099 2.957 12.212c-.257 4.114 1.257 6.107 2.685 6.524" style="fill:none;stroke:#050c2d;stroke-width:.75;stroke-linecap:round;stroke-linejoin:round;stroke-miterlimit:10"/><path d="m333.341 144.969-43.102-17.845c-11.92 7.049-41.247 35.788-50.02 69.21-5.748 21.898-5.401 58.945-4.644 79.656l.225 5.492s-.263 10.635 1.227 15.318c1.49 4.683 9.669 11.707 11.965 12.984 2.296 1.277.167 6.811 3.36 8.301 3.193 1.49 4.896-1.49 4.896-1.49l.161-.098c.091.514.21.93.371 1.162.958 1.384 3.193 1.703 5.002-.426l.146-.131c.08.812.23 1.428.493 1.661 1.277 1.13 4.257 1.769 5.747-1.104 1.064 2.235 1.384 2.129 3.938 2.661 2.554.532 7.122-2.238 7.769-4.363 1.304-4.284-.878-10.43-3.246-14.101-2.818-4.369-6.758-6.545-8.887-9.312-2.129-2.767-1.48-10.527-1.48-10.527l.29-3.47c3.164-35.215 11.904-59.537 15.664-65.928 4.257-7.237 32.885-35.432 32.885-35.432s17.879-16.376 17.24-32.218zm-63.139 163.75s3.328 2.98 3.115 4.541c-.213 1.562-3.431 1.879-3.431 1.879l-.036.193c.369-2.138.393-4.829.352-6.613zm-.575 7.677c-.007.028-.015.061-.022.083a4.005 4.005 0 0 1-.059.18c.027-.089.057-.171.081-.263z" style="fill:#fff"/><path d="m251.32 170.209 39.096 33.524c9.868-10.97 25.685-26.548 25.685-26.548s17.879-16.373 17.241-32.215c0 0-3.193-9.617-16.602-16.083-13.41-6.466-26.5-1.762-26.5-1.762-8.646 5.112-26.444 21.64-38.92 43.084z" style="fill:#7accfb"/><path d="M243.838 202.081s.943-9.898 5.154-15.964M251.32 170.209l39.096 33.524M259.195 164.602l33.144 27.049" style="fill:none;stroke:#050c2d;stroke-width:.75;stroke-linecap:round;stroke-linejoin:round;stroke-miterlimit:10"/><path d="M257.248 316.594s-1.703 2.98-4.896 1.49c-3.193-1.49-1.064-7.024-3.36-8.301-2.296-1.277-10.475-8.301-11.965-12.984-1.49-4.683-1.227-15.318-1.227-15.318l-.225-5.492c-.757-20.71-1.103-57.758 4.644-79.656 8.772-33.422 38.1-62.16 50.02-69.21" style="fill:none;stroke:#050c2d;stroke-width:.75;stroke-linecap:round;stroke-linejoin:round;stroke-miterlimit:10"/><path d="M257.248 308.719s-.426 7.556.532 8.94c.958 1.384 3.193 1.703 5.002-.426" style="fill:none;stroke:#050c2d;stroke-width:.75;stroke-linecap:round;stroke-linejoin:round;stroke-miterlimit:10"/><path d="M263.42 307.761s-1.277 9.871 0 11.002c1.277 1.13 4.257 1.769 5.747-1.104 1.49-2.874.958-10.855.958-10.855" style="fill:none;stroke:#050c2d;stroke-width:.75;stroke-linecap:round;stroke-linejoin:round;stroke-miterlimit:10"/><path d="M270.202 308.719s3.328 2.98 3.115 4.541c-.213 1.562-3.431 1.879-3.431 1.879s-.189 1.021-.281 1.339c-.093.318-.439 1.18-.439 1.18 1.064 2.235 1.384 2.129 3.938 2.661s7.122-2.238 7.769-4.363c1.304-4.284-.878-10.43-3.246-14.101-2.818-4.369-6.758-6.545-8.887-9.312-2.129-2.767-1.48-10.527-1.48-10.527l.29-3.47c3.164-35.215 11.904-59.537 15.664-65.928 4.257-7.237 32.885-35.432 32.885-35.432s17.879-16.373 17.241-32.215" style="fill:none;stroke:#050c2d;stroke-width:.75;stroke-linecap:round;stroke-linejoin:round;stroke-miterlimit:10"/><path d="M350.476 110.822s-4.529 21.968 1.962 30.792c5.168 7.026 19.714-6.024 21.753-11.198 2.039-5.174-19.802-22.618-23.715-19.594z" style="fill:#fff;stroke:#050c2d;stroke-width:.75;stroke-linecap:round;stroke-linejoin:round;stroke-miterlimit:10"/><path d="M352.348 96.621a9.16 9.16 0 0 1 4.512 3.318l1.749-5.208c2.772-8.255 10.974-13.017 18.224-10.582l10.906 3.663c7.251 2.435 10.915 11.182 8.142 19.438l-5.678 16.906c-2.773 8.256-10.974 13.017-18.225 10.582l-6.306-2.118-13.86-18.063c.07-.207.156-.403.243-.599a9.156 9.156 0 0 1-5.493-.113c-4.796-1.61-7.388-6.772-5.79-11.529 1.597-4.756 6.78-7.306 11.576-5.695z" style="fill:#fff;stroke:#050c2d;stroke-width:.75;stroke-linecap:round;stroke-linejoin:round;stroke-miterlimit:10"/><path d="M353.192 107.78s2.347-5.721-3.879-7.089M380.077 115.518l5.254-1.193-1.637-7.758" style="fill:none;stroke:#050c2d;stroke-width:.5;stroke-linecap:round;stroke-linejoin:round;stroke-miterlimit:10"/><path d="m371.798 101.519 4.787-.27M390.298 106.131l3.841 1.953" style="fill:none;stroke:#050c2d;stroke-width:.75;stroke-linecap:round;stroke-linejoin:round;stroke-miterlimit:10"/><path d="M372.495 105.858a2.051 2.051 0 1 0 3.884 1.321 2.051 2.051 0 0 0-3.884-1.321zM388.968 110.808a1.758 1.758 0 1 0 3.33 1.131 1.758 1.758 0 0 0-3.33-1.131z" style="fill:#050c2d"/><path d="M360.14 67.049c6.929-2.725 12.11-.19 17.737 2.3 31.068-.317 31.459 29.059 19.178 32.841-3.617 1.114-17.432-2.216-21.166-9.767-.766 1.018-1.823 2.274-3.31 3.828-3.218 3.362-8.267 4.794-12.064 5.395l-1.404 11.779s14.565 1.309 22.811 4.182c8.247 2.873 8.28 6.548 8.28 6.548s-3.918 11.294-13.407 11.185c-8.05-.092-11.124-2.721-11.124-2.721s-8.342-5.471-11.101-11.767c-1.212-2.765-2.183-4.487-2.516-6.895l4.663-13.243a20.132 20.132 0 0 0-.638-.913s-1.429-2.399-3.643-3.149c-2.055-.697-4.32-.59-6.224.063-8.247-21.698 13.928-29.666 13.928-29.666z" style="fill:#050c2d;stroke:#050c2d;stroke-width:.5;stroke-miterlimit:10"/><path d="M377.585 94.896s-6.96-2.23-21.504 4.906c0 0-.669-1.106-1.614-1.91-1.221-1.041-2.029-1.239-2.029-1.239s7.723-9.829 23.068-8.446c0-.001 1.73 1.353 2.079 6.689z" style="fill:#7accfb;stroke:#050c2d;stroke-width:.5;stroke-linecap:round;stroke-linejoin:round;stroke-miterlimit:10"/><path d="m377.877 69.349-.157-.07c-8.505 6.638-2.45 20.791-1.831 23.144 3.734 7.55 17.549 10.881 21.166 9.767 12.281-3.782 11.89-33.159-19.178-32.841z" style="fill:#050c2d;stroke:#050c2d;stroke-width:.5;stroke-miterlimit:10"/><path d="M383.283 121.195a3.992 3.992 0 1 1-7.568-2.542l7.568 2.542z" style="fill:#fff;stroke:#050c2d;stroke-width:.5;stroke-linecap:round;stroke-linejoin:round;stroke-miterlimit:10"/><path d="M344.375 127.124s-.212 8.942 7.095 21.516" style="fill:none;stroke:#050c2d;stroke-width:.75;stroke-linecap:round;stroke-linejoin:round;stroke-miterlimit:10"/></svg>